<svg xmlns="http://www.w3.org/2000/svg" viewBox="0 0 500 410">
  <rect width="500" height="410" fill="transparent"/>

  <!-- VISION رؤية -->
  <text x="250" y="44"
    text-anchor="middle"
    font-family="'Arial','Helvetica',sans-serif"
    font-size="36" font-weight="700"
    fill="#006B65" letter-spacing="1">VISION رؤية</text>

  <!-- Starburst dots -->
  <rect x="218.50" y="174.50" width="7.0" height="7.0" fill="#006B65" rx="0.5"/>
  <rect x="214.40" y="184.40" width="7.0" height="7.0" fill="#006B65" rx="0.5"/>
  <rect x="204.50" y="188.50" width="7.0" height="7.0" fill="#006B65" rx="0.5"/>
  <rect x="194.60" y="184.40" width="7.0" height="7.0" fill="#006B65" rx="0.5"/>
  <rect x="190.50" y="174.50" width="7.0" height="7.0" fill="#006B65" rx="0.5"/>
  <rect x="194.60" y="164.60" width="7.0" height="7.0" fill="#006B65" rx="0.5"/>
  <rect x="204.50" y="160.50" width="7.0" height="7.0" fill="#006B65" rx="0.5"/>
  <rect x="214.40" y="164.60" width="7.0" height="7.0" fill="#006B65" rx="0.5"/>
  <rect x="228.00" y="175.00" width="6.0" height="6.0" fill="#006B65" rx="0.5"/>
  <rect x="225.37" y="185.69" width="6.0" height="6.0" fill="#006B65" rx="0.5"/>
  <rect x="218.07" y="193.93" width="6.0" height="6.0" fill="#006B65" rx="0.5"/>
  <rect x="207.77" y="197.83" width="6.0" height="6.0" fill="#006B65" rx="0.5"/>
  <rect x="196.84" y="196.51" width="6.0" height="6.0" fill="#006B65" rx="0.5"/>
  <rect x="187.78" y="190.25" width="6.0" height="6.0" fill="#006B65" rx="0.5"/>
  <rect x="182.67" y="180.50" width="6.0" height="6.0" fill="#006B65" rx="0.5"/>
  <rect x="182.67" y="169.50" width="6.0" height="6.0" fill="#006B65" rx="0.5"/>
  <rect x="187.78" y="159.75" width="6.0" height="6.0" fill="#006B65" rx="0.5"/>
  <rect x="196.84" y="153.49" width="6.0" height="6.0" fill="#006B65" rx="0.5"/>
  <rect x="207.77" y="152.17" width="6.0" height="6.0" fill="#006B65" rx="0.5"/>
  <rect x="218.07" y="156.07" width="6.0" height="6.0" fill="#006B65" rx="0.5"/>
  <rect x="225.37" y="164.31" width="6.0" height="6.0" fill="#006B65" rx="0.5"/>
  <rect x="237.40" y="175.40" width="5.2" height="5.2" fill="#006B65" rx="0.5"/>
  <rect x="235.47" y="186.34" width="5.2" height="5.2" fill="#006B65" rx="0.5"/>
  <rect x="229.91" y="195.97" width="5.2" height="5.2" fill="#006B65" rx="0.5"/>
  <rect x="221.40" y="203.11" width="5.2" height="5.2" fill="#006B65" rx="0.5"/>
  <rect x="210.96" y="206.91" width="5.2" height="5.2" fill="#006B65" rx="0.5"/>
  <rect x="199.84" y="206.91" width="5.2" height="5.2" fill="#006B65" rx="0.5"/>
  <rect x="189.40" y="203.11" width="5.2" height="5.2" fill="#006B65" rx="0.5"/>
  <rect x="180.89" y="195.97" width="5.2" height="5.2" fill="#006B65" rx="0.5"/>
  <rect x="175.33" y="186.34" width="5.2" height="5.2" fill="#006B65" rx="0.5"/>
  <rect x="173.40" y="175.40" width="5.2" height="5.2" fill="#006B65" rx="0.5"/>
  <rect x="175.33" y="164.46" width="5.2" height="5.2" fill="#006B65" rx="0.5"/>
  <rect x="180.89" y="154.83" width="5.2" height="5.2" fill="#006B65" rx="0.5"/>
  <rect x="189.40" y="147.69" width="5.2" height="5.2" fill="#006B65" rx="0.5"/>
  <rect x="199.84" y="143.89" width="5.2" height="5.2" fill="#006B65" rx="0.5"/>
  <rect x="210.96" y="143.89" width="5.2" height="5.2" fill="#006B65" rx="0.5"/>
  <rect x="221.40" y="147.69" width="5.2" height="5.2" fill="#006B65" rx="0.5"/>
  <rect x="229.91" y="154.83" width="5.2" height="5.2" fill="#006B65" rx="0.5"/>
  <rect x="235.47" y="164.46" width="5.2" height="5.2" fill="#006B65" rx="0.5"/>
  <rect x="246.70" y="175.70" width="4.6" height="4.6" fill="#006B65" rx="0.5"/>
  <rect x="245.30" y="186.31" width="4.6" height="4.6" fill="#006B65" rx="0.5"/>
  <rect x="241.21" y="196.20" width="4.6" height="4.6" fill="#006B65" rx="0.5"/>
  <rect x="234.69" y="204.69" width="4.6" height="4.6" fill="#006B65" rx="0.5"/>
  <rect x="226.20" y="211.21" width="4.6" height="4.6" fill="#006B65" rx="0.5"/>
  <rect x="216.31" y="215.30" width="4.6" height="4.6" fill="#006B65" rx="0.5"/>
  <rect x="205.70" y="216.70" width="4.6" height="4.6" fill="#006B65" rx="0.5"/>
  <rect x="195.09" y="215.30" width="4.6" height="4.6" fill="#006B65" rx="0.5"/>
  <rect x="185.20" y="211.21" width="4.6" height="4.6" fill="#006B65" rx="0.5"/>
  <rect x="176.71" y="204.69" width="4.6" height="4.6" fill="#006B65" rx="0.5"/>
  <rect x="170.19" y="196.20" width="4.6" height="4.6" fill="#006B65" rx="0.5"/>
  <rect x="166.10" y="186.31" width="4.6" height="4.6" fill="#006B65" rx="0.5"/>
  <rect x="164.70" y="175.70" width="4.6" height="4.6" fill="#006B65" rx="0.5"/>
  <rect x="166.10" y="165.09" width="4.6" height="4.6" fill="#006B65" rx="0.5"/>
  <rect x="170.19" y="155.20" width="4.6" height="4.6" fill="#006B65" rx="0.5"/>
  <rect x="176.71" y="146.71" width="4.6" height="4.6" fill="#006B65" rx="0.5"/>
  <rect x="185.20" y="140.19" width="4.6" height="4.6" fill="#006B65" rx="0.5"/>
  <rect x="195.09" y="136.10" width="4.6" height="4.6" fill="#006B65" rx="0.5"/>
  <rect x="205.70" y="134.70" width="4.6" height="4.6" fill="#006B65" rx="0.5"/>
  <rect x="216.31" y="136.10" width="4.6" height="4.6" fill="#006B65" rx="0.5"/>
  <rect x="226.20" y="140.19" width="4.6" height="4.6" fill="#006B65" rx="0.5"/>
  <rect x="234.69" y="146.71" width="4.6" height="4.6" fill="#006B65" rx="0.5"/>
  <rect x="241.21" y="155.20" width="4.6" height="4.6" fill="#006B65" rx="0.5"/>
  <rect x="245.30" y="165.09" width="4.6" height="4.6" fill="#006B65" rx="0.5"/>
  <rect x="255.00" y="176.00" width="4.0" height="4.0" fill="#006B65" rx="0.5"/>
  <rect x="253.93" y="186.19" width="4.0" height="4.0" fill="#006B65" rx="0.5"/>
  <rect x="250.76" y="195.93" width="4.0" height="4.0" fill="#006B65" rx="0.5"/>
  <rect x="245.64" y="204.80" width="4.0" height="4.0" fill="#006B65" rx="0.5"/>
  <rect x="238.79" y="212.41" width="4.0" height="4.0" fill="#006B65" rx="0.5"/>
  <rect x="230.50" y="218.44" width="4.0" height="4.0" fill="#006B65" rx="0.5"/>
  <rect x="221.14" y="222.60" width="4.0" height="4.0" fill="#006B65" rx="0.5"/>
  <rect x="211.12" y="224.73" width="4.0" height="4.0" fill="#006B65" rx="0.5"/>
  <rect x="200.88" y="224.73" width="4.0" height="4.0" fill="#006B65" rx="0.5"/>
  <rect x="190.86" y="222.60" width="4.0" height="4.0" fill="#006B65" rx="0.5"/>
  <rect x="181.50" y="218.44" width="4.0" height="4.0" fill="#006B65" rx="0.5"/>
  <rect x="173.21" y="212.41" width="4.0" height="4.0" fill="#006B65" rx="0.5"/>
  <rect x="166.36" y="204.80" width="4.0" height="4.0" fill="#006B65" rx="0.5"/>
  <rect x="161.24" y="195.93" width="4.0" height="4.0" fill="#006B65" rx="0.5"/>
  <rect x="158.07" y="186.19" width="4.0" height="4.0" fill="#006B65" rx="0.5"/>
  <rect x="157.00" y="176.00" width="4.0" height="4.0" fill="#006B65" rx="0.5"/>
  <rect x="158.07" y="165.81" width="4.0" height="4.0" fill="#006B65" rx="0.5"/>
  <rect x="161.24" y="156.07" width="4.0" height="4.0" fill="#006B65" rx="0.5"/>
  <rect x="166.36" y="147.20" width="4.0" height="4.0" fill="#006B65" rx="0.5"/>
  <rect x="173.21" y="139.59" width="4.0" height="4.0" fill="#006B65" rx="0.5"/>
  <rect x="181.50" y="133.56" width="4.0" height="4.0" fill="#006B65" rx="0.5"/>
  <rect x="190.86" y="129.40" width="4.0" height="4.0" fill="#006B65" rx="0.5"/>
  <rect x="200.88" y="127.27" width="4.0" height="4.0" fill="#006B65" rx="0.5"/>
  <rect x="211.12" y="127.27" width="4.0" height="4.0" fill="#006B65" rx="0.5"/>
  <rect x="221.14" y="129.40" width="4.0" height="4.0" fill="#006B65" rx="0.5"/>
  <rect x="230.50" y="133.56" width="4.0" height="4.0" fill="#006B65" rx="0.5"/>
  <rect x="238.79" y="139.59" width="4.0" height="4.0" fill="#006B65" rx="0.5"/>
  <rect x="245.64" y="147.20" width="4.0" height="4.0" fill="#006B65" rx="0.5"/>
  <rect x="250.76" y="156.07" width="4.0" height="4.0" fill="#006B65" rx="0.5"/>
  <rect x="253.93" y="165.81" width="4.0" height="4.0" fill="#006B65" rx="0.5"/>
  <rect x="263.25" y="176.25" width="3.5" height="3.5" fill="#006B65" rx="0.5"/>
  <rect x="262.38" y="186.15" width="3.5" height="3.5" fill="#006B65" rx="0.5"/>
  <rect x="259.81" y="195.75" width="3.5" height="3.5" fill="#006B65" rx="0.5"/>
  <rect x="255.61" y="204.75" width="3.5" height="3.5" fill="#006B65" rx="0.5"/>
  <rect x="249.91" y="212.89" width="3.5" height="3.5" fill="#006B65" rx="0.5"/>
  <rect x="242.89" y="219.91" width="3.5" height="3.5" fill="#006B65" rx="0.5"/>
  <rect x="234.75" y="225.61" width="3.5" height="3.5" fill="#006B65" rx="0.5"/>
  <rect x="225.75" y="229.81" width="3.5" height="3.5" fill="#006B65" rx="0.5"/>
  <rect x="216.15" y="232.38" width="3.5" height="3.5" fill="#006B65" rx="0.5"/>
  <rect x="206.25" y="233.25" width="3.5" height="3.5" fill="#006B65" rx="0.5"/>
  <rect x="196.35" y="232.38" width="3.5" height="3.5" fill="#006B65" rx="0.5"/>
  <rect x="186.75" y="229.81" width="3.5" height="3.5" fill="#006B65" rx="0.5"/>
  <rect x="177.75" y="225.61" width="3.5" height="3.5" fill="#006B65" rx="0.5"/>
  <rect x="169.61" y="219.91" width="3.5" height="3.5" fill="#006B65" rx="0.5"/>
  <rect x="162.59" y="212.89" width="3.5" height="3.5" fill="#006B65" rx="0.5"/>
  <rect x="156.89" y="204.75" width="3.5" height="3.5" fill="#006B65" rx="0.5"/>
  <rect x="152.69" y="195.75" width="3.5" height="3.5" fill="#006B65" rx="0.5"/>
  <rect x="150.12" y="186.15" width="3.5" height="3.5" fill="#006B65" rx="0.5"/>
  <rect x="149.25" y="176.25" width="3.5" height="3.5" fill="#006B65" rx="0.5"/>
  <rect x="150.12" y="166.35" width="3.5" height="3.5" fill="#006B65" rx="0.5"/>
  <rect x="152.69" y="156.75" width="3.5" height="3.5" fill="#006B65" rx="0.5"/>
  <rect x="156.89" y="147.75" width="3.5" height="3.5" fill="#006B65" rx="0.5"/>
  <rect x="162.59" y="139.61" width="3.5" height="3.5" fill="#006B65" rx="0.5"/>
  <rect x="169.61" y="132.59" width="3.5" height="3.5" fill="#006B65" rx="0.5"/>
  <rect x="177.75" y="126.89" width="3.5" height="3.5" fill="#006B65" rx="0.5"/>
  <rect x="186.75" y="122.69" width="3.5" height="3.5" fill="#006B65" rx="0.5"/>
  <rect x="196.35" y="120.12" width="3.5" height="3.5" fill="#006B65" rx="0.5"/>
  <rect x="206.25" y="119.25" width="3.5" height="3.5" fill="#006B65" rx="0.5"/>
  <rect x="216.15" y="120.12" width="3.5" height="3.5" fill="#006B65" rx="0.5"/>
  <rect x="225.75" y="122.69" width="3.5" height="3.5" fill="#006B65" rx="0.5"/>
  <rect x="234.75" y="126.89" width="3.5" height="3.5" fill="#006B65" rx="0.5"/>
  <rect x="242.89" y="132.59" width="3.5" height="3.5" fill="#006B65" rx="0.5"/>
  <rect x="249.91" y="139.61" width="3.5" height="3.5" fill="#006B65" rx="0.5"/>
  <rect x="255.61" y="147.75" width="3.5" height="3.5" fill="#006B65" rx="0.5"/>
  <rect x="259.81" y="156.75" width="3.5" height="3.5" fill="#006B65" rx="0.5"/>
  <rect x="262.38" y="166.35" width="3.5" height="3.5" fill="#006B65" rx="0.5"/>
  <rect x="270.50" y="176.50" width="3.0" height="3.0" fill="#006B65" rx="0.5"/>
  <rect x="269.79" y="186.04" width="3.0" height="3.0" fill="#006B65" rx="0.5"/>
  <rect x="267.66" y="195.36" width="3.0" height="3.0" fill="#006B65" rx="0.5"/>
  <rect x="264.16" y="204.27" width="3.0" height="3.0" fill="#006B65" rx="0.5"/>
  <rect x="259.38" y="212.55" width="3.0" height="3.0" fill="#006B65" rx="0.5"/>
  <rect x="253.42" y="220.03" width="3.0" height="3.0" fill="#006B65" rx="0.5"/>
  <rect x="246.40" y="226.54" width="3.0" height="3.0" fill="#006B65" rx="0.5"/>
  <rect x="238.50" y="231.93" width="3.0" height="3.0" fill="#006B65" rx="0.5"/>
  <rect x="229.88" y="236.08" width="3.0" height="3.0" fill="#006B65" rx="0.5"/>
  <rect x="220.74" y="238.90" width="3.0" height="3.0" fill="#006B65" rx="0.5"/>
  <rect x="211.28" y="240.32" width="3.0" height="3.0" fill="#006B65" rx="0.5"/>
  <rect x="201.72" y="240.32" width="3.0" height="3.0" fill="#006B65" rx="0.5"/>
  <rect x="192.26" y="238.90" width="3.0" height="3.0" fill="#006B65" rx="0.5"/>
  <rect x="183.12" y="236.08" width="3.0" height="3.0" fill="#006B65" rx="0.5"/>
  <rect x="174.50" y="231.93" width="3.0" height="3.0" fill="#006B65" rx="0.5"/>
  <rect x="166.60" y="226.54" width="3.0" height="3.0" fill="#006B65" rx="0.5"/>
  <rect x="159.58" y="220.03" width="3.0" height="3.0" fill="#006B65" rx="0.5"/>
  <rect x="153.62" y="212.55" width="3.0" height="3.0" fill="#006B65" rx="0.5"/>
  <rect x="148.84" y="204.27" width="3.0" height="3.0" fill="#006B65" rx="0.5"/>
  <rect x="145.34" y="195.36" width="3.0" height="3.0" fill="#006B65" rx="0.5"/>
  <rect x="143.21" y="186.04" width="3.0" height="3.0" fill="#006B65" rx="0.5"/>
  <rect x="142.50" y="176.50" width="3.0" height="3.0" fill="#006B65" rx="0.5"/>
  <rect x="143.21" y="166.96" width="3.0" height="3.0" fill="#006B65" rx="0.5"/>
  <rect x="145.34" y="157.64" width="3.0" height="3.0" fill="#006B65" rx="0.5"/>
  <rect x="148.84" y="148.73" width="3.0" height="3.0" fill="#006B65" rx="0.5"/>
  <rect x="153.62" y="140.45" width="3.0" height="3.0" fill="#006B65" rx="0.5"/>
  <rect x="159.58" y="132.97" width="3.0" height="3.0" fill="#006B65" rx="0.5"/>
  <rect x="166.60" y="126.46" width="3.0" height="3.0" fill="#006B65" rx="0.5"/>
  <rect x="174.50" y="121.07" width="3.0" height="3.0" fill="#006B65" rx="0.5"/>
  <rect x="183.12" y="116.92" width="3.0" height="3.0" fill="#006B65" rx="0.5"/>
  <rect x="192.26" y="114.10" width="3.0" height="3.0" fill="#006B65" rx="0.5"/>
  <rect x="201.72" y="112.68" width="3.0" height="3.0" fill="#006B65" rx="0.5"/>
  <rect x="211.28" y="112.68" width="3.0" height="3.0" fill="#006B65" rx="0.5"/>
  <rect x="220.74" y="114.10" width="3.0" height="3.0" fill="#006B65" rx="0.5"/>
  <rect x="229.88" y="116.92" width="3.0" height="3.0" fill="#006B65" rx="0.5"/>
  <rect x="238.50" y="121.07" width="3.0" height="3.0" fill="#006B65" rx="0.5"/>
  <rect x="246.40" y="126.46" width="3.0" height="3.0" fill="#006B65" rx="0.5"/>
  <rect x="253.42" y="132.97" width="3.0" height="3.0" fill="#006B65" rx="0.5"/>
  <rect x="259.38" y="140.45" width="3.0" height="3.0" fill="#006B65" rx="0.5"/>
  <rect x="264.16" y="148.73" width="3.0" height="3.0" fill="#006B65" rx="0.5"/>
  <rect x="267.66" y="157.64" width="3.0" height="3.0" fill="#006B65" rx="0.5"/>
  <rect x="269.79" y="166.96" width="3.0" height="3.0" fill="#006B65" rx="0.5"/>
  <rect x="276.75" y="176.75" width="2.5" height="2.5" fill="#006B65" rx="0.5"/>
  <rect x="276.13" y="186.08" width="2.5" height="2.5" fill="#006B65" rx="0.5"/>
  <rect x="274.26" y="195.24" width="2.5" height="2.5" fill="#006B65" rx="0.5"/>
  <rect x="271.20" y="204.08" width="2.5" height="2.5" fill="#006B65" rx="0.5"/>
  <rect x="266.98" y="212.42" width="2.5" height="2.5" fill="#006B65" rx="0.5"/>
  <rect x="261.69" y="220.13" width="2.5" height="2.5" fill="#006B65" rx="0.5"/>
  <rect x="255.41" y="227.07" width="2.5" height="2.5" fill="#006B65" rx="0.5"/>
  <rect x="248.27" y="233.10" width="2.5" height="2.5" fill="#006B65" rx="0.5"/>
  <rect x="240.39" y="238.14" width="2.5" height="2.5" fill="#006B65" rx="0.5"/>
  <rect x="231.91" y="242.07" width="2.5" height="2.5" fill="#006B65" rx="0.5"/>
  <rect x="222.98" y="244.84" width="2.5" height="2.5" fill="#006B65" rx="0.5"/>
  <rect x="213.76" y="246.40" width="2.5" height="2.5" fill="#006B65" rx="0.5"/>
  <rect x="204.41" y="246.71" width="2.5" height="2.5" fill="#006B65" rx="0.5"/>
  <rect x="195.11" y="245.77" width="2.5" height="2.5" fill="#006B65" rx="0.5"/>
  <rect x="186.01" y="243.61" width="2.5" height="2.5" fill="#006B65" rx="0.5"/>
  <rect x="177.28" y="240.25" width="2.5" height="2.5" fill="#006B65" rx="0.5"/>
  <rect x="169.08" y="235.75" width="2.5" height="2.5" fill="#006B65" rx="0.5"/>
  <rect x="161.56" y="230.21" width="2.5" height="2.5" fill="#006B65" rx="0.5"/>
  <rect x="154.83" y="223.70" width="2.5" height="2.5" fill="#006B65" rx="0.5"/>
  <rect x="149.04" y="216.37" width="2.5" height="2.5" fill="#006B65" rx="0.5"/>
  <rect x="144.27" y="208.32" width="2.5" height="2.5" fill="#006B65" rx="0.5"/>
  <rect x="140.62" y="199.71" width="2.5" height="2.5" fill="#006B65" rx="0.5"/>
  <rect x="138.15" y="190.69" width="2.5" height="2.5" fill="#006B65" rx="0.5"/>
  <rect x="136.91" y="181.43" width="2.5" height="2.5" fill="#006B65" rx="0.5"/>
  <rect x="136.91" y="172.07" width="2.5" height="2.5" fill="#006B65" rx="0.5"/>
  <rect x="138.15" y="162.81" width="2.5" height="2.5" fill="#006B65" rx="0.5"/>
  <rect x="140.62" y="153.79" width="2.5" height="2.5" fill="#006B65" rx="0.5"/>
  <rect x="144.27" y="145.18" width="2.5" height="2.5" fill="#006B65" rx="0.5"/>
  <rect x="149.04" y="137.13" width="2.5" height="2.5" fill="#006B65" rx="0.5"/>
  <rect x="154.83" y="129.80" width="2.5" height="2.5" fill="#006B65" rx="0.5"/>
  <rect x="161.56" y="123.29" width="2.5" height="2.5" fill="#006B65" rx="0.5"/>
  <rect x="169.08" y="117.75" width="2.5" height="2.5" fill="#006B65" rx="0.5"/>
  <rect x="177.28" y="113.25" width="2.5" height="2.5" fill="#006B65" rx="0.5"/>
  <rect x="186.01" y="109.89" width="2.5" height="2.5" fill="#006B65" rx="0.5"/>
  <rect x="195.11" y="107.73" width="2.5" height="2.5" fill="#006B65" rx="0.5"/>
  <rect x="204.41" y="106.79" width="2.5" height="2.5" fill="#006B65" rx="0.5"/>
  <rect x="213.76" y="107.10" width="2.5" height="2.5" fill="#006B65" rx="0.5"/>
  <rect x="222.98" y="108.66" width="2.5" height="2.5" fill="#006B65" rx="0.5"/>
  <rect x="231.91" y="111.43" width="2.5" height="2.5" fill="#006B65" rx="0.5"/>
  <rect x="240.39" y="115.36" width="2.5" height="2.5" fill="#006B65" rx="0.5"/>
  <rect x="248.27" y="120.40" width="2.5" height="2.5" fill="#006B65" rx="0.5"/>
  <rect x="255.41" y="126.43" width="2.5" height="2.5" fill="#006B65" rx="0.5"/>
  <rect x="261.69" y="133.37" width="2.5" height="2.5" fill="#006B65" rx="0.5"/>
  <rect x="266.98" y="141.08" width="2.5" height="2.5" fill="#006B65" rx="0.5"/>
  <rect x="271.20" y="149.42" width="2.5" height="2.5" fill="#006B65" rx="0.5"/>
  <rect x="274.26" y="158.26" width="2.5" height="2.5" fill="#006B65" rx="0.5"/>
  <rect x="276.13" y="167.42" width="2.5" height="2.5" fill="#006B65" rx="0.5"/>

  <!-- Palm + swords -->
  
  <line x1="208" y1="189" x2="208" y2="158" stroke="#006B65" stroke-width="3" stroke-linecap="round"/>
  <path d="M208,160 C201,152 188,150 182,159" stroke="#006B65" stroke-width="2.3" fill="none" stroke-linecap="round"/>
  <path d="M208,160 C204,148 198,144 200,155" stroke="#006B65" stroke-width="1.8" fill="none" stroke-linecap="round"/>
  <path d="M208,160 C215,152 228,150 234,159" stroke="#006B65" stroke-width="2.3" fill="none" stroke-linecap="round"/>
  <path d="M208,160 C212,148 218,144 216,155" stroke="#006B65" stroke-width="1.8" fill="none" stroke-linecap="round"/>
  <path d="M208,160 C207,150 209,142 208,153" stroke="#006B65" stroke-width="2.2" fill="none" stroke-linecap="round"/>
  <circle cx="203" cy="157" r="3" fill="#006B65"/>
  <circle cx="213" cy="157" r="3" fill="#006B65"/>
  <line x1="199" y1="189" x2="217" y2="189" stroke="#006B65" stroke-width="2"/>
  <line x1="193" y1="183" x2="223" y2="193" stroke="#006B65" stroke-width="2.3" stroke-linecap="round"/>
  <line x1="223" y1="183" x2="193" y2="193" stroke="#006B65" stroke-width="2.3" stroke-linecap="round"/>
  <line x1="203.5" y1="186" x2="203.5" y2="192" stroke="#006B65" stroke-width="2" stroke-linecap="round"/>
  <line x1="212.5" y1="186" x2="212.5" y2="192" stroke="#006B65" stroke-width="2" stroke-linecap="round"/>


  <!-- "2" -->
  <text x="133" y="248"
    text-anchor="end"
    font-family="'Arial Black','Arial','Helvetica',sans-serif"
    font-size="148" font-weight="900"
    fill="#006B65">2</text>

  <!-- "30" -->
  <text x="285" y="248"
    text-anchor="start"
    font-family="'Arial Black','Arial','Helvetica',sans-serif"
    font-size="148" font-weight="900"
    fill="#006B65">30</text>

  <!-- Divider -->
  <line x1="48" y1="268" x2="452" y2="268" stroke="#006B65" stroke-width="1.5"/>

  <!-- Arabic -->
  <text x="250" y="300"
    text-anchor="middle"
    font-family="'Arial','Helvetica',sans-serif"
    font-size="20" font-weight="700"
    fill="#006B65">المملكة العربية السعودية</text>

  <!-- English -->
  <text x="250" y="328"
    text-anchor="middle"
    font-family="'Arial','Helvetica',sans-serif"
    font-size="13" font-weight="700"
    fill="#006B65" letter-spacing="3.5">KINGDOM OF SAUDI ARABIA</text>
</svg>