<svg xmlns="http://www.w3.org/2000/svg" viewBox="0 0 500 410">
  <!-- White background -->
  <rect width="500" height="410" fill="white"/>

  <!-- ── VISION رؤية header ── -->
  <text x="250" y="46"
    text-anchor="middle"
    font-family="'Arial','Helvetica',sans-serif"
    font-size="36" font-weight="700"
    fill="#007A73" letter-spacing="1">VISION رؤية</text>

  <!-- ── Dot starburst pattern ── -->
  <rect x="221.00" y="175.00" width="6.0" height="6.0" fill="#007A73" rx="0.4"/>
  <rect x="217.94" y="184.40" width="6.0" height="6.0" fill="#007A73" rx="0.4"/>
  <rect x="209.94" y="190.22" width="6.0" height="6.0" fill="#007A73" rx="0.4"/>
  <rect x="200.06" y="190.22" width="6.0" height="6.0" fill="#007A73" rx="0.4"/>
  <rect x="192.06" y="184.40" width="6.0" height="6.0" fill="#007A73" rx="0.4"/>
  <rect x="189.00" y="175.00" width="6.0" height="6.0" fill="#007A73" rx="0.4"/>
  <rect x="192.06" y="165.60" width="6.0" height="6.0" fill="#007A73" rx="0.4"/>
  <rect x="200.06" y="159.78" width="6.0" height="6.0" fill="#007A73" rx="0.4"/>
  <rect x="209.94" y="159.78" width="6.0" height="6.0" fill="#007A73" rx="0.4"/>
  <rect x="217.94" y="165.60" width="6.0" height="6.0" fill="#007A73" rx="0.4"/>
  <rect x="229.40" y="175.40" width="5.2" height="5.2" fill="#007A73" rx="0.4"/>
  <rect x="227.33" y="185.16" width="5.2" height="5.2" fill="#007A73" rx="0.4"/>
  <rect x="221.46" y="193.24" width="5.2" height="5.2" fill="#007A73" rx="0.4"/>
  <rect x="212.82" y="198.23" width="5.2" height="5.2" fill="#007A73" rx="0.4"/>
  <rect x="202.89" y="199.27" width="5.2" height="5.2" fill="#007A73" rx="0.4"/>
  <rect x="193.40" y="196.18" width="5.2" height="5.2" fill="#007A73" rx="0.4"/>
  <rect x="185.98" y="189.51" width="5.2" height="5.2" fill="#007A73" rx="0.4"/>
  <rect x="181.92" y="180.39" width="5.2" height="5.2" fill="#007A73" rx="0.4"/>
  <rect x="181.92" y="170.41" width="5.2" height="5.2" fill="#007A73" rx="0.4"/>
  <rect x="185.98" y="161.29" width="5.2" height="5.2" fill="#007A73" rx="0.4"/>
  <rect x="193.40" y="154.62" width="5.2" height="5.2" fill="#007A73" rx="0.4"/>
  <rect x="202.89" y="151.53" width="5.2" height="5.2" fill="#007A73" rx="0.4"/>
  <rect x="212.82" y="152.57" width="5.2" height="5.2" fill="#007A73" rx="0.4"/>
  <rect x="221.46" y="157.56" width="5.2" height="5.2" fill="#007A73" rx="0.4"/>
  <rect x="227.33" y="165.64" width="5.2" height="5.2" fill="#007A73" rx="0.4"/>
  <rect x="237.75" y="175.75" width="4.5" height="4.5" fill="#007A73" rx="0.4"/>
  <rect x="236.18" y="185.64" width="4.5" height="4.5" fill="#007A73" rx="0.4"/>
  <rect x="231.64" y="194.56" width="4.5" height="4.5" fill="#007A73" rx="0.4"/>
  <rect x="224.56" y="201.64" width="4.5" height="4.5" fill="#007A73" rx="0.4"/>
  <rect x="215.64" y="206.18" width="4.5" height="4.5" fill="#007A73" rx="0.4"/>
  <rect x="205.75" y="207.75" width="4.5" height="4.5" fill="#007A73" rx="0.4"/>
  <rect x="195.86" y="206.18" width="4.5" height="4.5" fill="#007A73" rx="0.4"/>
  <rect x="186.94" y="201.64" width="4.5" height="4.5" fill="#007A73" rx="0.4"/>
  <rect x="179.86" y="194.56" width="4.5" height="4.5" fill="#007A73" rx="0.4"/>
  <rect x="175.32" y="185.64" width="4.5" height="4.5" fill="#007A73" rx="0.4"/>
  <rect x="173.75" y="175.75" width="4.5" height="4.5" fill="#007A73" rx="0.4"/>
  <rect x="175.32" y="165.86" width="4.5" height="4.5" fill="#007A73" rx="0.4"/>
  <rect x="179.86" y="156.94" width="4.5" height="4.5" fill="#007A73" rx="0.4"/>
  <rect x="186.94" y="149.86" width="4.5" height="4.5" fill="#007A73" rx="0.4"/>
  <rect x="195.86" y="145.32" width="4.5" height="4.5" fill="#007A73" rx="0.4"/>
  <rect x="205.75" y="143.75" width="4.5" height="4.5" fill="#007A73" rx="0.4"/>
  <rect x="215.64" y="145.32" width="4.5" height="4.5" fill="#007A73" rx="0.4"/>
  <rect x="224.56" y="149.86" width="4.5" height="4.5" fill="#007A73" rx="0.4"/>
  <rect x="231.64" y="156.94" width="4.5" height="4.5" fill="#007A73" rx="0.4"/>
  <rect x="236.18" y="165.86" width="4.5" height="4.5" fill="#007A73" rx="0.4"/>
  <rect x="246.00" y="176.00" width="4.0" height="4.0" fill="#007A73" rx="0.4"/>
  <rect x="244.84" y="185.57" width="4.0" height="4.0" fill="#007A73" rx="0.4"/>
  <rect x="241.42" y="194.59" width="4.0" height="4.0" fill="#007A73" rx="0.4"/>
  <rect x="235.94" y="202.52" width="4.0" height="4.0" fill="#007A73" rx="0.4"/>
  <rect x="228.72" y="208.92" width="4.0" height="4.0" fill="#007A73" rx="0.4"/>
  <rect x="220.18" y="213.40" width="4.0" height="4.0" fill="#007A73" rx="0.4"/>
  <rect x="210.82" y="215.71" width="4.0" height="4.0" fill="#007A73" rx="0.4"/>
  <rect x="201.18" y="215.71" width="4.0" height="4.0" fill="#007A73" rx="0.4"/>
  <rect x="191.82" y="213.40" width="4.0" height="4.0" fill="#007A73" rx="0.4"/>
  <rect x="183.28" y="208.92" width="4.0" height="4.0" fill="#007A73" rx="0.4"/>
  <rect x="176.06" y="202.52" width="4.0" height="4.0" fill="#007A73" rx="0.4"/>
  <rect x="170.58" y="194.59" width="4.0" height="4.0" fill="#007A73" rx="0.4"/>
  <rect x="167.16" y="185.57" width="4.0" height="4.0" fill="#007A73" rx="0.4"/>
  <rect x="166.00" y="176.00" width="4.0" height="4.0" fill="#007A73" rx="0.4"/>
  <rect x="167.16" y="166.43" width="4.0" height="4.0" fill="#007A73" rx="0.4"/>
  <rect x="170.58" y="157.41" width="4.0" height="4.0" fill="#007A73" rx="0.4"/>
  <rect x="176.06" y="149.48" width="4.0" height="4.0" fill="#007A73" rx="0.4"/>
  <rect x="183.28" y="143.08" width="4.0" height="4.0" fill="#007A73" rx="0.4"/>
  <rect x="191.82" y="138.60" width="4.0" height="4.0" fill="#007A73" rx="0.4"/>
  <rect x="201.18" y="136.29" width="4.0" height="4.0" fill="#007A73" rx="0.4"/>
  <rect x="210.82" y="136.29" width="4.0" height="4.0" fill="#007A73" rx="0.4"/>
  <rect x="220.18" y="138.60" width="4.0" height="4.0" fill="#007A73" rx="0.4"/>
  <rect x="228.72" y="143.08" width="4.0" height="4.0" fill="#007A73" rx="0.4"/>
  <rect x="235.94" y="149.48" width="4.0" height="4.0" fill="#007A73" rx="0.4"/>
  <rect x="241.42" y="157.41" width="4.0" height="4.0" fill="#007A73" rx="0.4"/>
  <rect x="244.84" y="166.43" width="4.0" height="4.0" fill="#007A73" rx="0.4"/>
  <rect x="254.30" y="176.30" width="3.4" height="3.4" fill="#007A73" rx="0.4"/>
  <rect x="253.38" y="185.66" width="3.4" height="3.4" fill="#007A73" rx="0.4"/>
  <rect x="250.65" y="194.67" width="3.4" height="3.4" fill="#007A73" rx="0.4"/>
  <rect x="246.21" y="202.97" width="3.4" height="3.4" fill="#007A73" rx="0.4"/>
  <rect x="240.24" y="210.24" width="3.4" height="3.4" fill="#007A73" rx="0.4"/>
  <rect x="232.97" y="216.21" width="3.4" height="3.4" fill="#007A73" rx="0.4"/>
  <rect x="224.67" y="220.65" width="3.4" height="3.4" fill="#007A73" rx="0.4"/>
  <rect x="215.66" y="223.38" width="3.4" height="3.4" fill="#007A73" rx="0.4"/>
  <rect x="206.30" y="224.30" width="3.4" height="3.4" fill="#007A73" rx="0.4"/>
  <rect x="196.94" y="223.38" width="3.4" height="3.4" fill="#007A73" rx="0.4"/>
  <rect x="187.93" y="220.65" width="3.4" height="3.4" fill="#007A73" rx="0.4"/>
  <rect x="179.63" y="216.21" width="3.4" height="3.4" fill="#007A73" rx="0.4"/>
  <rect x="172.36" y="210.24" width="3.4" height="3.4" fill="#007A73" rx="0.4"/>
  <rect x="166.39" y="202.97" width="3.4" height="3.4" fill="#007A73" rx="0.4"/>
  <rect x="161.95" y="194.67" width="3.4" height="3.4" fill="#007A73" rx="0.4"/>
  <rect x="159.22" y="185.66" width="3.4" height="3.4" fill="#007A73" rx="0.4"/>
  <rect x="158.30" y="176.30" width="3.4" height="3.4" fill="#007A73" rx="0.4"/>
  <rect x="159.22" y="166.94" width="3.4" height="3.4" fill="#007A73" rx="0.4"/>
  <rect x="161.95" y="157.93" width="3.4" height="3.4" fill="#007A73" rx="0.4"/>
  <rect x="166.39" y="149.63" width="3.4" height="3.4" fill="#007A73" rx="0.4"/>
  <rect x="172.36" y="142.36" width="3.4" height="3.4" fill="#007A73" rx="0.4"/>
  <rect x="179.63" y="136.39" width="3.4" height="3.4" fill="#007A73" rx="0.4"/>
  <rect x="187.93" y="131.95" width="3.4" height="3.4" fill="#007A73" rx="0.4"/>
  <rect x="196.94" y="129.22" width="3.4" height="3.4" fill="#007A73" rx="0.4"/>
  <rect x="206.30" y="128.30" width="3.4" height="3.4" fill="#007A73" rx="0.4"/>
  <rect x="215.66" y="129.22" width="3.4" height="3.4" fill="#007A73" rx="0.4"/>
  <rect x="224.67" y="131.95" width="3.4" height="3.4" fill="#007A73" rx="0.4"/>
  <rect x="232.97" y="136.39" width="3.4" height="3.4" fill="#007A73" rx="0.4"/>
  <rect x="240.24" y="142.36" width="3.4" height="3.4" fill="#007A73" rx="0.4"/>
  <rect x="246.21" y="149.63" width="3.4" height="3.4" fill="#007A73" rx="0.4"/>
  <rect x="250.65" y="157.93" width="3.4" height="3.4" fill="#007A73" rx="0.4"/>
  <rect x="253.38" y="166.94" width="3.4" height="3.4" fill="#007A73" rx="0.4"/>
  <rect x="261.55" y="176.55" width="2.9" height="2.9" fill="#007A73" rx="0.4"/>
  <rect x="260.76" y="185.85" width="2.9" height="2.9" fill="#007A73" rx="0.4"/>
  <rect x="258.41" y="194.87" width="2.9" height="2.9" fill="#007A73" rx="0.4"/>
  <rect x="254.57" y="203.37" width="2.9" height="2.9" fill="#007A73" rx="0.4"/>
  <rect x="249.34" y="211.10" width="2.9" height="2.9" fill="#007A73" rx="0.4"/>
  <rect x="242.89" y="217.84" width="2.9" height="2.9" fill="#007A73" rx="0.4"/>
  <rect x="235.39" y="223.38" width="2.9" height="2.9" fill="#007A73" rx="0.4"/>
  <rect x="227.06" y="227.58" width="2.9" height="2.9" fill="#007A73" rx="0.4"/>
  <rect x="218.14" y="230.32" width="2.9" height="2.9" fill="#007A73" rx="0.4"/>
  <rect x="208.88" y="231.50" width="2.9" height="2.9" fill="#007A73" rx="0.4"/>
  <rect x="199.56" y="231.10" width="2.9" height="2.9" fill="#007A73" rx="0.4"/>
  <rect x="190.44" y="229.14" width="2.9" height="2.9" fill="#007A73" rx="0.4"/>
  <rect x="181.79" y="225.66" width="2.9" height="2.9" fill="#007A73" rx="0.4"/>
  <rect x="173.85" y="220.77" width="2.9" height="2.9" fill="#007A73" rx="0.4"/>
  <rect x="166.84" y="214.61" width="2.9" height="2.9" fill="#007A73" rx="0.4"/>
  <rect x="160.98" y="207.35" width="2.9" height="2.9" fill="#007A73" rx="0.4"/>
  <rect x="156.43" y="199.20" width="2.9" height="2.9" fill="#007A73" rx="0.4"/>
  <rect x="153.32" y="190.41" width="2.9" height="2.9" fill="#007A73" rx="0.4"/>
  <rect x="151.75" y="181.21" width="2.9" height="2.9" fill="#007A73" rx="0.4"/>
  <rect x="151.75" y="171.89" width="2.9" height="2.9" fill="#007A73" rx="0.4"/>
  <rect x="153.32" y="162.69" width="2.9" height="2.9" fill="#007A73" rx="0.4"/>
  <rect x="156.43" y="153.90" width="2.9" height="2.9" fill="#007A73" rx="0.4"/>
  <rect x="160.98" y="145.75" width="2.9" height="2.9" fill="#007A73" rx="0.4"/>
  <rect x="166.84" y="138.49" width="2.9" height="2.9" fill="#007A73" rx="0.4"/>
  <rect x="173.85" y="132.33" width="2.9" height="2.9" fill="#007A73" rx="0.4"/>
  <rect x="181.79" y="127.44" width="2.9" height="2.9" fill="#007A73" rx="0.4"/>
  <rect x="190.44" y="123.96" width="2.9" height="2.9" fill="#007A73" rx="0.4"/>
  <rect x="199.56" y="122.00" width="2.9" height="2.9" fill="#007A73" rx="0.4"/>
  <rect x="208.88" y="121.60" width="2.9" height="2.9" fill="#007A73" rx="0.4"/>
  <rect x="218.14" y="122.78" width="2.9" height="2.9" fill="#007A73" rx="0.4"/>
  <rect x="227.06" y="125.52" width="2.9" height="2.9" fill="#007A73" rx="0.4"/>
  <rect x="235.39" y="129.72" width="2.9" height="2.9" fill="#007A73" rx="0.4"/>
  <rect x="242.89" y="135.26" width="2.9" height="2.9" fill="#007A73" rx="0.4"/>
  <rect x="249.34" y="142.00" width="2.9" height="2.9" fill="#007A73" rx="0.4"/>
  <rect x="254.57" y="149.73" width="2.9" height="2.9" fill="#007A73" rx="0.4"/>
  <rect x="258.41" y="158.23" width="2.9" height="2.9" fill="#007A73" rx="0.4"/>
  <rect x="260.76" y="167.25" width="2.9" height="2.9" fill="#007A73" rx="0.4"/>
  <rect x="267.75" y="176.75" width="2.5" height="2.5" fill="#007A73" rx="0.4"/>
  <rect x="267.10" y="185.63" width="2.5" height="2.5" fill="#007A73" rx="0.4"/>
  <rect x="265.16" y="194.32" width="2.5" height="2.5" fill="#007A73" rx="0.4"/>
  <rect x="261.98" y="202.64" width="2.5" height="2.5" fill="#007A73" rx="0.4"/>
  <rect x="257.62" y="210.41" width="2.5" height="2.5" fill="#007A73" rx="0.4"/>
  <rect x="252.18" y="217.46" width="2.5" height="2.5" fill="#007A73" rx="0.4"/>
  <rect x="245.77" y="223.64" width="2.5" height="2.5" fill="#007A73" rx="0.4"/>
  <rect x="238.53" y="228.82" width="2.5" height="2.5" fill="#007A73" rx="0.4"/>
  <rect x="230.61" y="232.89" width="2.5" height="2.5" fill="#007A73" rx="0.4"/>
  <rect x="222.18" y="235.77" width="2.5" height="2.5" fill="#007A73" rx="0.4"/>
  <rect x="213.42" y="237.38" width="2.5" height="2.5" fill="#007A73" rx="0.4"/>
  <rect x="204.52" y="237.71" width="2.5" height="2.5" fill="#007A73" rx="0.4"/>
  <rect x="195.67" y="236.74" width="2.5" height="2.5" fill="#007A73" rx="0.4"/>
  <rect x="187.05" y="234.48" width="2.5" height="2.5" fill="#007A73" rx="0.4"/>
  <rect x="178.86" y="231.00" width="2.5" height="2.5" fill="#007A73" rx="0.4"/>
  <rect x="171.26" y="226.36" width="2.5" height="2.5" fill="#007A73" rx="0.4"/>
  <rect x="164.41" y="220.66" width="2.5" height="2.5" fill="#007A73" rx="0.4"/>
  <rect x="158.47" y="214.03" width="2.5" height="2.5" fill="#007A73" rx="0.4"/>
  <rect x="153.55" y="206.60" width="2.5" height="2.5" fill="#007A73" rx="0.4"/>
  <rect x="149.78" y="198.54" width="2.5" height="2.5" fill="#007A73" rx="0.4"/>
  <rect x="147.21" y="190.01" width="2.5" height="2.5" fill="#007A73" rx="0.4"/>
  <rect x="145.91" y="181.20" width="2.5" height="2.5" fill="#007A73" rx="0.4"/>
  <rect x="145.91" y="172.30" width="2.5" height="2.5" fill="#007A73" rx="0.4"/>
  <rect x="147.21" y="163.49" width="2.5" height="2.5" fill="#007A73" rx="0.4"/>
  <rect x="149.78" y="154.96" width="2.5" height="2.5" fill="#007A73" rx="0.4"/>
  <rect x="153.55" y="146.90" width="2.5" height="2.5" fill="#007A73" rx="0.4"/>
  <rect x="158.47" y="139.47" width="2.5" height="2.5" fill="#007A73" rx="0.4"/>
  <rect x="164.41" y="132.84" width="2.5" height="2.5" fill="#007A73" rx="0.4"/>
  <rect x="171.26" y="127.14" width="2.5" height="2.5" fill="#007A73" rx="0.4"/>
  <rect x="178.86" y="122.50" width="2.5" height="2.5" fill="#007A73" rx="0.4"/>
  <rect x="187.05" y="119.02" width="2.5" height="2.5" fill="#007A73" rx="0.4"/>
  <rect x="195.67" y="116.76" width="2.5" height="2.5" fill="#007A73" rx="0.4"/>
  <rect x="204.52" y="115.79" width="2.5" height="2.5" fill="#007A73" rx="0.4"/>
  <rect x="213.42" y="116.12" width="2.5" height="2.5" fill="#007A73" rx="0.4"/>
  <rect x="222.18" y="117.73" width="2.5" height="2.5" fill="#007A73" rx="0.4"/>
  <rect x="230.61" y="120.61" width="2.5" height="2.5" fill="#007A73" rx="0.4"/>
  <rect x="238.53" y="124.68" width="2.5" height="2.5" fill="#007A73" rx="0.4"/>
  <rect x="245.77" y="129.86" width="2.5" height="2.5" fill="#007A73" rx="0.4"/>
  <rect x="252.18" y="136.04" width="2.5" height="2.5" fill="#007A73" rx="0.4"/>
  <rect x="257.62" y="143.09" width="2.5" height="2.5" fill="#007A73" rx="0.4"/>
  <rect x="261.98" y="150.86" width="2.5" height="2.5" fill="#007A73" rx="0.4"/>
  <rect x="265.16" y="159.18" width="2.5" height="2.5" fill="#007A73" rx="0.4"/>
  <rect x="267.10" y="167.87" width="2.5" height="2.5" fill="#007A73" rx="0.4"/>
  <rect x="273.95" y="176.95" width="2.1" height="2.1" fill="#007A73" rx="0.4"/>
  <rect x="273.38" y="185.70" width="2.1" height="2.1" fill="#007A73" rx="0.4"/>
  <rect x="271.67" y="194.29" width="2.1" height="2.1" fill="#007A73" rx="0.4"/>
  <rect x="268.85" y="202.59" width="2.1" height="2.1" fill="#007A73" rx="0.4"/>
  <rect x="264.97" y="210.45" width="2.1" height="2.1" fill="#007A73" rx="0.4"/>
  <rect x="260.10" y="217.74" width="2.1" height="2.1" fill="#007A73" rx="0.4"/>
  <rect x="254.33" y="224.33" width="2.1" height="2.1" fill="#007A73" rx="0.4"/>
  <rect x="247.74" y="230.10" width="2.1" height="2.1" fill="#007A73" rx="0.4"/>
  <rect x="240.45" y="234.97" width="2.1" height="2.1" fill="#007A73" rx="0.4"/>
  <rect x="232.59" y="238.85" width="2.1" height="2.1" fill="#007A73" rx="0.4"/>
  <rect x="224.29" y="241.67" width="2.1" height="2.1" fill="#007A73" rx="0.4"/>
  <rect x="215.70" y="243.38" width="2.1" height="2.1" fill="#007A73" rx="0.4"/>
  <rect x="206.95" y="243.95" width="2.1" height="2.1" fill="#007A73" rx="0.4"/>
  <rect x="198.20" y="243.38" width="2.1" height="2.1" fill="#007A73" rx="0.4"/>
  <rect x="189.61" y="241.67" width="2.1" height="2.1" fill="#007A73" rx="0.4"/>
  <rect x="181.31" y="238.85" width="2.1" height="2.1" fill="#007A73" rx="0.4"/>
  <rect x="173.45" y="234.97" width="2.1" height="2.1" fill="#007A73" rx="0.4"/>
  <rect x="166.16" y="230.10" width="2.1" height="2.1" fill="#007A73" rx="0.4"/>
  <rect x="159.57" y="224.33" width="2.1" height="2.1" fill="#007A73" rx="0.4"/>
  <rect x="153.80" y="217.74" width="2.1" height="2.1" fill="#007A73" rx="0.4"/>
  <rect x="148.93" y="210.45" width="2.1" height="2.1" fill="#007A73" rx="0.4"/>
  <rect x="145.05" y="202.59" width="2.1" height="2.1" fill="#007A73" rx="0.4"/>
  <rect x="142.23" y="194.29" width="2.1" height="2.1" fill="#007A73" rx="0.4"/>
  <rect x="140.52" y="185.70" width="2.1" height="2.1" fill="#007A73" rx="0.4"/>
  <rect x="139.95" y="176.95" width="2.1" height="2.1" fill="#007A73" rx="0.4"/>
  <rect x="140.52" y="168.20" width="2.1" height="2.1" fill="#007A73" rx="0.4"/>
  <rect x="142.23" y="159.61" width="2.1" height="2.1" fill="#007A73" rx="0.4"/>
  <rect x="145.05" y="151.31" width="2.1" height="2.1" fill="#007A73" rx="0.4"/>
  <rect x="148.93" y="143.45" width="2.1" height="2.1" fill="#007A73" rx="0.4"/>
  <rect x="153.80" y="136.16" width="2.1" height="2.1" fill="#007A73" rx="0.4"/>
  <rect x="159.57" y="129.57" width="2.1" height="2.1" fill="#007A73" rx="0.4"/>
  <rect x="166.16" y="123.80" width="2.1" height="2.1" fill="#007A73" rx="0.4"/>
  <rect x="173.45" y="118.93" width="2.1" height="2.1" fill="#007A73" rx="0.4"/>
  <rect x="181.31" y="115.05" width="2.1" height="2.1" fill="#007A73" rx="0.4"/>
  <rect x="189.61" y="112.23" width="2.1" height="2.1" fill="#007A73" rx="0.4"/>
  <rect x="198.20" y="110.52" width="2.1" height="2.1" fill="#007A73" rx="0.4"/>
  <rect x="206.95" y="109.95" width="2.1" height="2.1" fill="#007A73" rx="0.4"/>
  <rect x="215.70" y="110.52" width="2.1" height="2.1" fill="#007A73" rx="0.4"/>
  <rect x="224.29" y="112.23" width="2.1" height="2.1" fill="#007A73" rx="0.4"/>
  <rect x="232.59" y="115.05" width="2.1" height="2.1" fill="#007A73" rx="0.4"/>
  <rect x="240.45" y="118.93" width="2.1" height="2.1" fill="#007A73" rx="0.4"/>
  <rect x="247.74" y="123.80" width="2.1" height="2.1" fill="#007A73" rx="0.4"/>
  <rect x="254.33" y="129.57" width="2.1" height="2.1" fill="#007A73" rx="0.4"/>
  <rect x="260.10" y="136.16" width="2.1" height="2.1" fill="#007A73" rx="0.4"/>
  <rect x="264.97" y="143.45" width="2.1" height="2.1" fill="#007A73" rx="0.4"/>
  <rect x="268.85" y="151.31" width="2.1" height="2.1" fill="#007A73" rx="0.4"/>
  <rect x="271.67" y="159.61" width="2.1" height="2.1" fill="#007A73" rx="0.4"/>
  <rect x="273.38" y="168.20" width="2.1" height="2.1" fill="#007A73" rx="0.4"/>

  <!-- ── Palm + swords emblem ── -->
  
  <!-- trunk -->
  <line x1="208" y1="188" x2="208" y2="160" stroke="#007A73" stroke-width="2.8" stroke-linecap="round"/>
  <!-- fronds left -->
  <path d="M208,162 C202,154 190,152 184,160" stroke="#007A73" stroke-width="2" fill="none" stroke-linecap="round"/>
  <path d="M208,162 C204,150 198,146 200,156" stroke="#007A73" stroke-width="1.5" fill="none" stroke-linecap="round"/>
  <!-- fronds right -->
  <path d="M208,162 C214,154 226,152 232,160" stroke="#007A73" stroke-width="2" fill="none" stroke-linecap="round"/>
  <path d="M208,162 C212,150 218,146 216,156" stroke="#007A73" stroke-width="1.5" fill="none" stroke-linecap="round"/>
  <!-- top frond -->
  <path d="M208,162 C207,152 209,144 208,154" stroke="#007A73" stroke-width="2" fill="none" stroke-linecap="round"/>
  <!-- date clusters -->
  <circle cx="203" cy="158" r="2.5" fill="#007A73"/>
  <circle cx="213" cy="158" r="2.5" fill="#007A73"/>
  <!-- ground line -->
  <line x1="200" y1="188" x2="216" y2="188" stroke="#007A73" stroke-width="1.5"/>
  <!-- crossed swords -->
  <line x1="194" y1="183" x2="222" y2="192" stroke="#007A73" stroke-width="2" stroke-linecap="round"/>
  <line x1="222" y1="183" x2="194" y2="192" stroke="#007A73" stroke-width="2" stroke-linecap="round"/>
  <!-- sword cross-guards -->
  <line x1="204" y1="186" x2="204" y2="191" stroke="#007A73" stroke-width="1.8" stroke-linecap="round"/>
  <line x1="212" y1="186" x2="212" y2="191" stroke="#007A73" stroke-width="1.8" stroke-linecap="round"/>


  <!-- ── "2" numeral ── -->
  <text x="132" y="248"
    text-anchor="end"
    font-family="'Arial Black','Arial','Helvetica',sans-serif"
    font-size="148" font-weight="900"
    fill="#007A73">2</text>

  <!-- ── "30" numerals ── -->
  <text x="285" y="248"
    text-anchor="start"
    font-family="'Arial Black','Arial','Helvetica',sans-serif"
    font-size="148" font-weight="900"
    fill="#007A73">30</text>

  <!-- ── Divider line ── -->
  <line x1="50" y1="268" x2="450" y2="268" stroke="#007A73" stroke-width="1.2"/>

  <!-- ── المملكة العربية السعودية ── -->
  <text x="250" y="300"
    text-anchor="middle"
    font-family="'Arial','Helvetica',sans-serif"
    font-size="20" font-weight="600"
    fill="#007A73">المملكة العربية السعودية</text>

  <!-- ── KINGDOM OF SAUDI ARABIA ── -->
  <text x="250" y="328"
    text-anchor="middle"
    font-family="'Arial','Helvetica',sans-serif"
    font-size="13" font-weight="600"
    fill="#007A73" letter-spacing="3.5">KINGDOM OF SAUDI ARABIA</text>
</svg>